<svg id="Layer_1" data-name="Layer 1" xmlns="http://www.w3.org/2000/svg" viewBox="0 0 471.18 72.72"><defs><style>.cls-1{fill:#fff9ef;}</style></defs><path class="cls-1" d="M116,19.48a.78.78,0,0,1,1.09.55l.9,2.3c.2.47,0,.89-.7,1.13-1.83.58-7.37,3.2-8.58,7.49a10.39,10.39,0,0,1,4.44-1.1c3.91,0,8,2.89,8,8.47a8.93,8.93,0,0,1-8.81,8.93c-6.13,0-9.28-4.91-9.28-10.77C103,25.1,112.67,20.57,116,19.48Zm.7,18.76a4.52,4.52,0,0,0-4.48-4.56,4.83,4.83,0,0,0-4.53,3.39c0,2.65,1.41,5.73,4.57,5.73A4.54,4.54,0,0,0,116.72,38.24Z"/><path class="cls-1" d="M126.7,33.6c0-8.54,3.59-13.65,9.83-13.65s9.83,5.11,9.83,13.65-3.59,13.65-9.83,13.65S126.7,42.14,126.7,33.6Zm14.55,0c0-5.77-1.71-9-4.72-9s-4.72,3.28-4.72,9.05,1.72,9,4.72,9S141.25,39.41,141.25,33.6Z"/><path class="cls-1" d="M151.7,45.22c2.57-3.12,7.49-9.51,10.1-13a7.42,7.42,0,0,0,2-4.33c0-1.75-1.33-3.54-4.13-3.54a6.35,6.35,0,0,0-4.37,2.3.72.72,0,0,1-1.06,0l-1.87-1.88a.77.77,0,0,1,0-1S155.37,20,160,20c5.57,0,8.69,3.55,8.69,7.76,0,2.53-1.09,4.13-2.61,6.32-1.68,2.38-4.64,6-6.71,8.66h8.43a.77.77,0,0,1,.74.74v2.69a.77.77,0,0,1-.74.74H152.44a.74.74,0,0,1-.74-.74Z"/><path class="cls-1" d="M198.85,19.17a13.19,13.19,0,0,1,9.43,3.63.72.72,0,0,1,0,1.09l-2.38,2.45a.61.61,0,0,1-1,0,9.24,9.24,0,0,0-6-2.3,8.85,8.85,0,0,0-8.7,9.09,8.83,8.83,0,0,0,8.74,9,9.4,9.4,0,0,0,6-2.22.7.7,0,0,1,1,0l2.42,2.49a.75.75,0,0,1,0,1.06,13.38,13.38,0,0,1-9.47,3.78,14,14,0,1,1,0-28.08Z"/><path class="cls-1" d="M227.31,19.17a14,14,0,1,1-14,14.08A14,14,0,0,1,227.31,19.17Zm0,23a9,9,0,1,0-8.93-8.93A9,9,0,0,0,227.31,42.18Z"/><path class="cls-1" d="M248.4,19.87a.74.74,0,0,1,.75-.7h1l16.23,17.24h0V20.3a.74.74,0,0,1,.74-.74h3.59a.77.77,0,0,1,.74.74V46.55a.73.73,0,0,1-.74.7h-.93l-16.31-17.9h0V46.12a.75.75,0,0,1-.75.74h-3.54a.77.77,0,0,1-.75-.74Z"/><path class="cls-1" d="M278.9,43l1.4-2.42a.9.9,0,0,1,1.33-.27c.19.11,3.35,2.41,5.89,2.41,2,0,3.55-1.32,3.55-3,0-2-1.68-3.35-5-4.68-3.66-1.48-7.33-3.82-7.33-8.42,0-3.47,2.57-7.49,8.78-7.49a13.8,13.8,0,0,1,7.8,2.61,1,1,0,0,1,.23,1.29l-1.48,2.22a1,1,0,0,1-1.37.47c-.31-.2-3.27-2.15-5.42-2.15s-3.43,1.49-3.43,2.73c0,1.84,1.44,3.09,4.6,4.37,3.78,1.52,8.15,3.79,8.15,8.82,0,4-3.47,7.72-9,7.72a12.56,12.56,0,0,1-8.58-3C278.74,43.86,278.55,43.66,278.9,43Z"/><path class="cls-1" d="M303.19,20.3a.77.77,0,0,1,.74-.74h3.71a.74.74,0,0,1,.74.74v16a5.68,5.68,0,1,0,11.35,0v-16a.74.74,0,0,1,.74-.74h3.7a.77.77,0,0,1,.74.74V36.52a10.86,10.86,0,0,1-21.72,0Z"/><path class="cls-1" d="M333.57,20.3a.74.74,0,0,1,.74-.74h3.59a.77.77,0,0,1,.74.74V42.18h9.94a.74.74,0,0,1,.74.74v3.2a.74.74,0,0,1-.74.74H334.31a.74.74,0,0,1-.74-.74Z"/><path class="cls-1" d="M357.31,24.24h-6a.74.74,0,0,1-.74-.74V20.3a.74.74,0,0,1,.74-.74h17a.74.74,0,0,1,.74.74v3.2a.74.74,0,0,1-.74.74h-6V46.12a.77.77,0,0,1-.74.74h-3.62a.77.77,0,0,1-.75-.74Z"/><path class="cls-1" d="M370.1,45.84,382.23,19.6a.71.71,0,0,1,.67-.43h.39a.65.65,0,0,1,.66.43l12,26.24a.69.69,0,0,1-.66,1h-3.39a1.11,1.11,0,0,1-1.13-.78l-1.92-4.21H377.2l-1.91,4.21a1.16,1.16,0,0,1-1.13.78h-3.39A.7.7,0,0,1,370.1,45.84ZM387,37.54,383.05,29h-.11l-3.83,8.58Z"/><path class="cls-1" d="M401.46,19.87a.73.73,0,0,1,.74-.7h1L419.4,36.41h0V20.3a.74.74,0,0,1,.74-.74h3.59a.77.77,0,0,1,.74.74V46.55a.73.73,0,0,1-.74.7h-.94l-16.3-17.9h0V46.12a.74.74,0,0,1-.74.74H402.2a.77.77,0,0,1-.74-.74Z"/><path class="cls-1" d="M437.21,24.24h-6a.74.74,0,0,1-.74-.74V20.3a.74.74,0,0,1,.74-.74h17a.74.74,0,0,1,.74.74v3.2a.74.74,0,0,1-.74.74h-6V46.12a.77.77,0,0,1-.74.74H438a.77.77,0,0,1-.75-.74Z"/><path class="cls-1" d="M453.43,43l1.41-2.42a.89.89,0,0,1,1.32-.27c.2.11,3.36,2.41,5.89,2.41,2,0,3.55-1.32,3.55-3,0-2-1.67-3.35-5-4.68-3.67-1.48-7.33-3.82-7.33-8.42,0-3.47,2.57-7.49,8.77-7.49a13.77,13.77,0,0,1,7.8,2.61,1,1,0,0,1,.24,1.29l-1.49,2.22a1,1,0,0,1-1.36.47c-.31-.2-3.28-2.15-5.42-2.15s-3.43,1.49-3.43,2.73c0,1.84,1.44,3.09,4.6,4.37,3.78,1.52,8.15,3.79,8.15,8.82,0,4-3.47,7.72-9,7.72a12.56,12.56,0,0,1-8.58-3C453.28,43.86,453.08,43.66,453.43,43Z"/><path class="cls-1" d="M41,72.72A36.36,36.36,0,1,1,77.39,36.36,36.4,36.4,0,0,1,41,72.72ZM41,3.5A32.86,32.86,0,1,0,73.89,36.36,32.9,32.9,0,0,0,41,3.5Z"/><path class="cls-1" d="M40.07,49.53H40c0-.1-.05-.21-.08-.32Z"/><path class="cls-1" d="M40.07,49.53H40c0-.1-.05-.21-.08-.32Z"/><path class="cls-1" d="M22.13,58.9A101.32,101.32,0,0,0,0,66.86c8.62-8,22.46-25,17.84-47.9,6,8.18,9.26,19.46,6,39.54Z"/><path class="cls-1" d="M82.06,58.08c-2.48-.66-5.12-1.22-7.9-1.68-.8-.14-1.63-.26-2.5-.38A93.28,93.28,0,0,0,62,40c-1-1.4-2.17-2.86-3.43-4.38A161.75,161.75,0,0,1,82.06,58.08Z"/><path class="cls-1" d="M66.94,55.49c-3.71-.36-7.57-.53-11.51-.53h0a144.3,144.3,0,0,0-14.86.79l-.45,0-.91.1-.92.11h-.09c-.15,0-7,1-10.18,1.6.19-1.28.36-2.52.5-3.73,0-.28.07-.56.1-.84.07-.66.13-1.31.19-1.95s.11-1.25.15-1.86.06-.92.08-1.37c0-.69.06-1.37.08-2a66.94,66.94,0,0,0-.17-7.19C27.62,22.41,20,13.78,10.46,5.86A117.55,117.55,0,0,1,43.64,26c.94.82,1.86,1.65,2.74,2.47.43.4.86.8,1.27,1.21s.75.72,1.11,1.09.53.53.79.79c1.43,1.44,2.76,2.88,4,4.29.36.4.7.8,1,1.2s.79.93,1.16,1.39c.85,1,1.65,2.05,2.41,3.05,1.1,1.45,2.11,2.87,3,4.24q.31.45.6.9c.42.63.81,1.24,1.19,1.84l.08.13c.41.65.79,1.28,1.16,1.9l.53.92c.18.3.35.6.51.89q.49.88.93,1.71l.38.73Z"/><path class="cls-1" d="M67.23,56.06c-.09-.19-.19-.38-.29-.57h0Z"/><path class="cls-1" d="M69.28,48.94h0c.1.19.2.38.29.57Z"/></svg>